<svg width="16" height="10" viewBox="0 0 16 10" fill="none" xmlns="http://www.w3.org/2000/svg">
<path fill-rule="evenodd" clip-rule="evenodd" d="M13.2567 0.181705C13.552 0.431145 13.5615 0.843992 13.2781 1.10383L3.79126 9.79948C3.50778 10.0593 3.03861 10.0677 2.74332 9.8183C2.44804 9.56886 2.43846 9.15601 2.72194 8.89617L3.03401 8.61013C2.45051 8.24967 1.91159 7.82413 1.43087 7.33943L0.670087 6.57236C-0.223363 5.67153 -0.223362 4.32847 0.670087 3.42764L1.43087 2.66057C3.10744 0.970136 5.49167 8.53531e-07 8 8.53531e-07C9.27195 8.53531e-07 10.5129 0.249604 11.6458 0.716533L12.2087 0.200524C12.4922 -0.0593098 12.9614 -0.0677353 13.2567 0.181705ZM10.5487 1.72215C9.74029 1.4484 8.87841 1.30435 8 1.30435C5.93095 1.30435 3.95018 2.10413 2.54768 3.51822L1.7869 4.28529C1.38078 4.69476 1.38078 5.30524 1.7869 5.71471L2.54768 6.48178C3.00184 6.93969 3.51662 7.33311 4.07517 7.65579L5.54336 6.31005C5.29318 5.92461 5.15066 5.47619 5.15066 5C5.15066 3.59795 6.39813 2.41546 8 2.41546C8.51817 2.41546 9.00237 2.5411 9.41849 2.75808L10.5487 1.72215ZM8.32869 3.757C8.22305 3.7326 8.11294 3.71981 8 3.71981C7.27324 3.71981 6.63298 4.26762 6.63298 5C6.63298 5.0969 6.6444 5.19092 6.66594 5.28108L8.32869 3.757ZM13.5234 2.59803C13.8318 2.3612 14.3 2.38919 14.5691 2.66057L15.3299 3.42764C16.2234 4.32847 16.2234 5.67153 15.3299 6.57236L14.5691 7.33943C12.8926 9.02986 10.5083 10 8 10C7.49526 10 6.99522 9.96069 6.50477 9.88402C6.10175 9.82103 5.83307 9.48247 5.90466 9.12784C5.97625 8.7732 6.361 8.53679 6.76402 8.59978C7.16951 8.66316 7.5828 8.69565 8 8.69565C10.069 8.69565 12.0498 7.89587 13.4523 6.48178L14.2131 5.71471C14.6192 5.30524 14.6192 4.69476 14.2131 4.28529L13.4523 3.51822C13.1832 3.24685 13.215 2.83486 13.5234 2.59803Z" fill="#F2F6F9"/>
</svg>
