<svg width="18" height="19" viewBox="0 0 18 19" fill="none" xmlns="http://www.w3.org/2000/svg">
<path fill-rule="evenodd" clip-rule="evenodd" d="M9 1.3845C7.08824 1.3845 5.53846 2.93429 5.53846 4.84606C5.53846 6.75782 7.08824 8.30761 9 8.30761C10.9118 8.30761 12.4615 6.75782 12.4615 4.84606C12.4615 2.93429 10.9118 1.3845 9 1.3845ZM4.15385 4.84606C4.15385 2.16959 6.32354 -0.00012207 9 -0.00012207C11.6765 -0.00012207 13.8462 2.16959 13.8462 4.84606C13.8462 7.52253 11.6765 9.69223 9 9.69223C6.32354 9.69223 4.15385 7.52253 4.15385 4.84606ZM1.91034 14.0845C1.58276 14.5476 1.38462 15.1401 1.38462 15.923C1.38462 16.0717 1.4388 16.2191 1.71471 16.3932C2.02029 16.5861 2.52231 16.7537 3.24425 16.8793C4.67873 17.1289 6.69514 17.1692 9 17.1692C11.3049 17.1692 13.3213 17.1289 14.7558 16.8793C15.4777 16.7537 15.9797 16.5861 16.2853 16.3932C16.5612 16.2191 16.6154 16.0717 16.6154 15.923C16.6154 15.1401 16.4172 14.5476 16.0897 14.0845C15.758 13.6158 15.2604 13.2331 14.5902 12.9313C13.2272 12.3176 11.2744 12.0922 9 12.0922C6.72558 12.0922 4.77277 12.3176 3.40982 12.9313C2.73959 13.2331 2.24197 13.6158 1.91034 14.0845ZM2.84132 11.6688C4.48517 10.9286 6.6862 10.7076 9 10.7076C11.3138 10.7076 13.5148 10.9286 15.1587 11.6688C15.9918 12.044 16.7109 12.5652 17.22 13.2848C17.7332 14.0103 18 14.8907 18 15.923C18 16.6666 17.5893 17.2075 17.0244 17.5641C16.4892 17.902 15.7746 18.1075 14.9931 18.2434C13.4208 18.517 11.2833 18.5538 9 18.5538C6.71665 18.5538 4.57921 18.517 3.0069 18.2434C2.22544 18.1075 1.51082 17.902 0.97562 17.5641C0.410748 17.2075 0 16.6666 0 15.923C0 14.8907 0.266786 14.0103 0.779998 13.2848C1.28915 12.5652 2.00816 12.044 2.84132 11.6688Z" fill="#F2F6F9"/>
</svg>
