<svg width="20" height="20" viewBox="0 0 20 20" fill="none" xmlns="http://www.w3.org/2000/svg">
<path d="M5.39701 17.2714C6.72772 18.1157 8.3057 18.6047 10 18.6047C14.7522 18.6047 18.6047 14.7522 18.6047 10C18.6047 5.24779 14.7522 1.39535 10 1.39535C6.73041 1.39535 3.88673 3.21897 2.43061 5.90458C2.25307 6.23204 1.86426 6.39579 1.51652 6.26227C1.14376 6.11914 0.963898 5.69244 1.15026 5.33931C2.82589 2.16418 6.16022 0 10 0C15.5229 0 20 4.47716 20 10C20 15.5228 15.5229 20 10 20C8.23617 20 6.57739 19.5428 5.13756 18.7401C5.00883 18.6684 4.85606 18.6516 4.71624 18.6982L1.5304 19.7602C0.732799 20.026 -0.0260175 19.2672 0.239851 18.4696L1.3018 15.2838C1.3484 15.144 1.33163 14.9912 1.25987 14.8625C1.2226 14.7956 1.18607 14.7282 1.15029 14.6604C0.963926 14.3072 1.144 13.8805 1.51691 13.7376C1.8645 13.6044 2.25293 13.768 2.43037 14.0953C2.52413 14.2682 2.62364 14.4375 2.72865 14.603C2.84102 14.7801 2.86775 14.9984 2.80141 15.1974L1.80081 18.1992L4.80262 17.1986C5.00161 17.1323 5.21989 17.159 5.39701 17.2714Z" fill="#F2F6F9"/>
<path fill-rule="evenodd" clip-rule="evenodd" d="M7.68736 6.16214C7.96103 5.92879 8.38256 5.94981 8.62886 6.20908L11.8289 9.5775C12.057 9.81769 12.057 10.1823 11.8289 10.4225L8.62886 13.7909C8.38256 14.0502 7.96103 14.0712 7.68736 13.8379C7.41368 13.6045 7.3915 13.2052 7.6378 12.9459L9.83643 10.6316H0.666667C0.298477 10.6316 0 10.3488 0 10C0 9.65119 0.298477 9.36842 0.666667 9.36842H9.83642L7.6378 7.05409C7.3915 6.79482 7.41368 6.39548 7.68736 6.16214Z" fill="#F2F6F9"/>
</svg>
