<svg width="18" height="20" viewBox="0 0 18 20" fill="none" xmlns="http://www.w3.org/2000/svg">
<path fill-rule="evenodd" clip-rule="evenodd" d="M4.35661 9.50667C4.62698 9.23421 5.06532 9.23421 5.33568 9.50667L7.61538 11.804L12.6643 6.71597C12.9347 6.44351 13.373 6.44351 13.6434 6.71597C13.9138 6.98843 13.9138 7.43017 13.6434 7.70263L8.10492 13.284C7.83456 13.5565 7.39621 13.5565 7.12585 13.284L4.35661 10.4933C4.08625 10.2209 4.08625 9.77913 4.35661 9.50667Z" fill="#F2F6F9"/>
<path fill-rule="evenodd" clip-rule="evenodd" d="M15.963 2.08873C11.3623 1.16422 6.63773 1.16422 2.03703 2.08873C1.66914 2.16266 1.36827 2.52466 1.38528 2.98174L1.75193 12.8337C1.77269 13.3915 1.78719 13.7623 1.8247 14.0502C1.86041 14.3243 1.91128 14.4686 1.97613 14.5784C2.04002 14.6865 2.13704 14.7944 2.34906 14.945C2.57436 15.1051 2.88023 15.2804 3.34678 15.5463L7.5754 17.9565C8.01883 18.2092 8.30934 18.3739 8.54648 18.4802C8.77023 18.5805 8.89625 18.6047 9 18.6047C9.10375 18.6047 9.22977 18.5805 9.45353 18.4802C9.69066 18.3739 9.98118 18.2092 10.4246 17.9565L14.6532 15.5463C15.1198 15.2804 15.4256 15.1051 15.6509 14.945C15.863 14.7944 15.96 14.6865 16.0239 14.5784C16.0887 14.4686 16.1396 14.3243 16.1753 14.0502C16.2128 13.7623 16.2273 13.3915 16.2481 12.8337L16.6147 2.98174C16.6317 2.52466 16.3309 2.16266 15.963 2.08873ZM1.76626 0.720324C6.54571 -0.240108 11.4543 -0.240108 16.2337 0.720324C17.3126 0.937112 18.0391 1.93862 17.9984 3.03404L17.6306 12.9172C17.6113 13.4356 17.5951 13.8718 17.5481 14.2319C17.4985 14.6129 17.4091 14.9613 17.2136 15.2922C17.0172 15.6247 16.7566 15.8667 16.4488 16.0854C16.1605 16.2903 15.7938 16.4993 15.363 16.7448L11.079 19.1866C10.6703 19.4195 10.3216 19.6183 10.0162 19.7552C9.69057 19.9011 9.36582 20 9 20C8.63418 20 8.30943 19.9011 7.98384 19.7552C7.6784 19.6183 7.3297 19.4195 6.92104 19.1866L2.63704 16.7448C2.20618 16.4993 1.83954 16.2903 1.55121 16.0854C1.24335 15.8667 0.98282 15.6247 0.786399 15.2922C0.590937 14.9613 0.501506 14.6129 0.451863 14.2319C0.40495 13.8718 0.388726 13.4356 0.369448 12.9172L0.00163228 3.03404C-0.0391352 1.93862 0.687446 0.937112 1.76626 0.720324Z" fill="#F2F6F9"/>
</svg>
