<svg width="16" height="10" viewBox="0 0 16 10" fill="none" xmlns="http://www.w3.org/2000/svg">
<path fill-rule="evenodd" clip-rule="evenodd" d="M8 1.30435C5.84335 1.30435 3.79568 2.12158 2.35773 3.54177L1.73934 4.15253C1.24879 4.63702 1.24879 5.36298 1.73934 5.84747L2.35773 6.45823C3.79568 7.87842 5.84335 8.69565 8 8.69565C10.1567 8.69565 12.2043 7.87842 13.6423 6.45823L14.2607 5.84747C14.7512 5.36298 14.7512 4.63702 14.2607 4.15253L13.6423 3.54177C12.2043 2.12158 10.1567 1.30435 8 1.30435ZM1.36988 2.63701C3.07527 0.952678 5.48373 0 8 0C10.5163 0 12.9247 0.952678 14.6301 2.63701L15.2485 3.24777C16.2505 4.23737 16.2505 5.76263 15.2485 6.75223L14.6301 7.36299C12.9247 9.04732 10.5163 10 8 10C5.48373 10 3.07527 9.04732 1.36988 7.36299L0.751482 6.75223C-0.250494 5.76263 -0.250494 4.23737 0.751482 3.24777L1.36988 2.63701ZM8 3.71981C7.15235 3.71981 6.53353 4.32784 6.53353 5C6.53353 5.67216 7.15235 6.28019 8 6.28019C8.84765 6.28019 9.46647 5.67216 9.46647 5C9.46647 4.32784 8.84765 3.71981 8 3.71981ZM5.1621 5C5.1621 3.53772 6.47041 2.41546 8 2.41546C9.52959 2.41546 10.8379 3.53772 10.8379 5C10.8379 6.46228 9.52959 7.58454 8 7.58454C6.47041 7.58454 5.1621 6.46228 5.1621 5Z" fill="#F2F6F9"/>
</svg>
